<svg xmlns="http://www.w3.org/2000/svg" viewBox="0 0 14 10"><path fill-rule="evenodd" fill="#FCC836" d="M1.477-.001h11.06l.537.186v.047h-.049c-.1.16-.152.134-.293.232L12.44.79h-.098l-.242.278h-.099l-.291.326h-.098c-.033.047-.066.093-.097.14-.065.046-.131.092-.195.139v.046h-.098l-.292.327c-.867.598-1.569 1.355-2.437 1.953l-.291.325h-.098l-.292.326h-.098l-.292.325h-.098v.047c-.128.102-.18.205-.39.232-.08-.093-.162-.186-.244-.279h-.096L6.3 4.65h-.096l-.293-.326h-.097l-.293-.325h-.097l-.098-.14-.195-.139v-.047h-.097c-.098-.109-.194-.217-.293-.325h-.096l-.293-.326c-.588-.407-1.069-.897-1.656-1.303-.099-.108-.195-.217-.293-.325h-.097l-.293-.326h-.097L1.672.79h-.097C1.477.681 1.381.572 1.282.464h-.096C1.104.371 1.022.278.942.185l.535-.186zm3.168 4.372c-.044.152-.152.22-.244.325h-.049v.094l-.39.325v.093c-.13.109-.259.218-.39.325v.093l-.437.373v.093l-.39.325c-.506.667-1.152 1.194-1.658 1.861l-.194.139-.634.698H.211v-.093C-.085 8.773.016 7.665.016 7.115V2.557C.016 1.9-.063 1.096.308.79l.293.232.097.139h.098l.291.326h.099l.291.325h.098l.292.326c.589.407 1.068.896 1.657 1.303l.292.325h.098l.243.279h.098v.046c.123.101.214.234.39.28zm4.726 0h.097l.244-.28h.097l.293-.325h.096c.099-.108.195-.217.293-.325h.097l.293-.326h.097l.293-.326c.588-.406 1.068-.896 1.656-1.302l.147-.186.146-.093v-.047h.097l.049-.093c.119-.106.233-.208.389-.278.039.165.143.278.195.418v.186h.049v7.209l-.194.512h-.05v-.046l-.389-.326V8.65a170.72 170.72 0 00-.439-.372v-.093l-.39-.326v-.093l-.437-.372c-.506-.667-1.152-1.194-1.658-1.861l-.389-.325v-.093a170.72 170.72 0 00-.439-.372V4.65c-.091-.12-.186-.079-.243-.279zm-4.093.604c.157.069.271.174.39.279.017.032.031.063.048.094h.098v.047l.146.092.146.186h.098l.291.326h.099l.049.093c.061.054.141.077.195.139h.34v-.046h.097l.147-.186h.097l.293-.326h.097l.293-.325h.096l.099-.14.34-.233v.047c.107.068.072.108.146.186l.39.325v.093l.39.327v.093l.439.371v.094l.389.325v.093l.439.372v.093l.39.326v.093c.146.123.292.247.437.372v.093l.39.325v.093l.244.187.146.186h.049v.093l.341.279c.099.105.108.202.244.279v.046c-.174.036-.292.136-.439.186h-.195v.047H1.477v-.047h-.195c-.145-.05-.264-.15-.439-.186V9.72h.05l.73-.837.244-.187v-.093l.39-.325v-.093l.439-.372c.506-.667 1.151-1.194 1.656-1.86l.244-.187.098-.14h.047v-.093c.049-.031.099-.061.148-.093.141-.137.288-.29.389-.465z"/></svg>