<svg xmlns="http://www.w3.org/2000/svg" viewBox="0 0 15 16"><path fill-rule="evenodd" fill="#BEC3C7" d="M10.881 15.237a.842.842 0 01-.425-.114L7.084 13.21l-3.366 1.913a.861.861 0 01-.932-.051.912.912 0 01-.358-.882l.651-4.113L.317 7.171a.92.92 0 01-.204-.914.882.882 0 01.699-.604l3.78-.594 1.699-3.716a.875.875 0 01.793-.518c.341 0 .651.202.796.518l1.698 3.716 3.779.594a.88.88 0 01.699.604.916.916 0 01-.204.914l-2.761 2.905.654 4.114a.914.914 0 01-.358.882.868.868 0 01-.506.165zM7.084 11.28c.148 0 .292.037.424.112l2.216 1.257-.436-2.732a.921.921 0 01.239-.774l1.878-1.975-2.555-.402a.884.884 0 01-.662-.507L7.084 3.846 5.982 6.259a.88.88 0 01-.661.507l-2.554.402 1.877 1.975a.918.918 0 01.239.774l-.435 2.732 2.212-1.257a.862.862 0 01.424-.112z"/></svg>